<svg xmlns="http://www.w3.org/2000/svg" xmlns:xlink="http://www.w3.org/1999/xlink" viewBox="0 0 256 256"><defs><style>.cls-1{fill:#fff;}.cls-2{fill:url(#linear-gradient);}</style><linearGradient id="linear-gradient" x1="-918.49" y1="856.8" x2="-917.91" y2="856.8" gradientTransform="matrix(0, -294.79, -295.09, 0, 252962.06, -270569.43)" gradientUnits="userSpaceOnUse"><stop offset="0" stop-color="#04b6f0"/><stop offset="1" stop-color="#3ecaf0"/></linearGradient></defs><title>aOpenCart_logo_sq</title><g id="Layer_2" data-name="Layer 2"><g id="Layer_2-2" data-name="Layer 2"><rect class="cls-1" width="256" height="256"/></g><g id="Layer_1-2" data-name="Layer 1"><path class="cls-2" d="M38.28,207.87a17.24,17.24,0,0,1-4.18,11.78,14.35,14.35,0,0,1-11.32,5,14.34,14.34,0,0,1-11.32-5,18.67,18.67,0,0,1,0-23.57,14.5,14.5,0,0,1,11.32-5,14.4,14.4,0,0,1,11.32,5A17.2,17.2,0,0,1,38.28,207.87Zm-9.21,0a9.06,9.06,0,0,0-1.53-5.35,5.45,5.45,0,0,0-4.76-2.45A5.46,5.46,0,0,0,18,202.52a9.06,9.06,0,0,0-1.53,5.35A9.32,9.32,0,0,0,18,213.26a5.47,5.47,0,0,0,4.76,2.46,5.46,5.46,0,0,0,4.76-2.46A9.32,9.32,0,0,0,29.07,207.87Zm42.53,0a18.1,18.1,0,0,1-3.78,11.43,12.54,12.54,0,0,1-10.41,5.36,11.52,11.52,0,0,1-7.6-2.59c0,.4,0,1.35.13,2.89s.14,2.79.14,3.78q0,8.22-4.9,8.21a4.32,4.32,0,0,1-3.29-1.41,4.93,4.93,0,0,1-1.29-3.43v-35.6a4.79,4.79,0,0,1,1.32-3.37,4.33,4.33,0,0,1,3.27-1.41,4.5,4.5,0,0,1,4.3,2.93,9.69,9.69,0,0,1,7.9-3.53,12.58,12.58,0,0,1,10.43,5.29A18.23,18.23,0,0,1,71.6,207.87Zm-9.21,0a9.13,9.13,0,0,0-1.53-5.35,5.86,5.86,0,0,0-9.53,0,9.13,9.13,0,0,0-1.52,5.35,9.39,9.39,0,0,0,1.52,5.39,5.84,5.84,0,0,0,9.53,0A9.39,9.39,0,0,0,62.39,207.87Zm42.75-1a3.92,3.92,0,0,1-1.1,3.19,5.39,5.39,0,0,1-3.39.88H84A4.45,4.45,0,0,0,86.5,215a9.93,9.93,0,0,0,4.89,1.11,13.23,13.23,0,0,0,5.4-1.47,13.84,13.84,0,0,1,4-1.48,3.6,3.6,0,0,1,2.72,1.18,4,4,0,0,1,1.11,2.82q0,3.78-5.65,5.89a25.24,25.24,0,0,1-8.79,1.6,15.21,15.21,0,0,1-11.65-4.78,16.94,16.94,0,0,1-4.45-12,16.61,16.61,0,0,1,4.63-11.82,15.07,15.07,0,0,1,11.46-4.92,13.83,13.83,0,0,1,10.64,4.66A15.88,15.88,0,0,1,105.14,206.88Zm-9.22-2.32a5.34,5.34,0,0,0-2-3.84A5.83,5.83,0,0,0,90,199a5.89,5.89,0,0,0-4.07,1.73A5.11,5.11,0,0,0,84,204.56Zm40.18,14.66a4.88,4.88,0,0,1-1.29,3.42,4.29,4.29,0,0,1-3.3,1.41q-4.81,0-4.82-7.65c0-1,.06-2.52.19-4.65s.21-3.66.21-4.64q0-8.12-5.24-8.12t-5.24,8.12c0,1,.06,2.53.15,4.64s.17,3.67.17,4.65q0,7.65-4.76,7.65a4.25,4.25,0,0,1-3.29-1.41,4.85,4.85,0,0,1-1.3-3.42V196.5a4.74,4.74,0,0,1,1.3-3.38,4.34,4.34,0,0,1,3.3-1.39,4.64,4.64,0,0,1,4.6,2.93c1.48-2.35,4.12-3.53,7.89-3.53a12,12,0,0,1,8.31,2.76A10.66,10.66,0,0,1,136.1,202Zm28.91-1q0,3.12-4.06,4.94a16.52,16.52,0,0,1-6.85,1.48,14.34,14.34,0,0,1-11.32-5,18.64,18.64,0,0,1,.09-23.66,14.23,14.23,0,0,1,11.23-4.86,18.11,18.11,0,0,1,6.9,1.18c2.68,1.05,4,2.7,4,4.95a4.63,4.63,0,0,1-1.06,3,3.35,3.35,0,0,1-2.71,1.3,11,11,0,0,1-3.24-.75,10.48,10.48,0,0,0-3.36-.75,6.17,6.17,0,0,0-5.13,2.34,8.44,8.44,0,0,0-1.7,5.46,9,9,0,0,0,1.53,5.33,5.44,5.44,0,0,0,4.77,2.52,12.33,12.33,0,0,0,3.72-.81,12.4,12.4,0,0,1,3.41-.8,3.43,3.43,0,0,1,2.66,1.3A4.26,4.26,0,0,1,165,218.24Zm33.5,1a4.88,4.88,0,0,1-1.29,3.42,4.31,4.31,0,0,1-3.31,1.41,4.41,4.41,0,0,1-4.29-2.93,9.67,9.67,0,0,1-7.91,3.54,12.65,12.65,0,0,1-10.49-5.36,19.49,19.49,0,0,1,0-22.88,12.76,12.76,0,0,1,10.49-5.29,9.7,9.7,0,0,1,7.91,3.53,4.41,4.41,0,0,1,4.29-2.93,4.34,4.34,0,0,1,3.28,1.41,4.76,4.76,0,0,1,1.32,3.36Zm-9.21-11.35a9.13,9.13,0,0,0-1.52-5.35,5.57,5.57,0,0,0-4.77-2.45,5.46,5.46,0,0,0-4.76,2.45,9.06,9.06,0,0,0-1.53,5.35,9.6,9.6,0,0,0,1.47,5.39,5.62,5.62,0,0,0,4.82,2.46,5.48,5.48,0,0,0,4.77-2.46A9.39,9.39,0,0,0,189.3,207.87Zm32.72-12a4,4,0,0,1-2.87,4.07c-1.78.59-3.54,1.2-5.3,1.83-1.94,1.1-2.89,3.15-2.89,6.12v11.31a4.94,4.94,0,0,1-1.3,3.42,4.34,4.34,0,0,1-3.31,1.41,4.29,4.29,0,0,1-3.31-1.41,4.85,4.85,0,0,1-1.3-3.42V196.5a4.77,4.77,0,0,1,1.29-3.38,4.38,4.38,0,0,1,3.31-1.39,4.64,4.64,0,0,1,4.6,2.93q3-3.53,6.37-3.53a4.53,4.53,0,0,1,3.34,1.41A4.68,4.68,0,0,1,222,195.89Zm24,.42c0,2.05-.81,3.34-2.41,3.89a18,18,0,0,1-4.93.42v18.6a4.93,4.93,0,0,1-1.29,3.42,4.57,4.57,0,0,1-6.6,0,4.82,4.82,0,0,1-1.32-3.42v-18.6a8.94,8.94,0,0,1-4.14-.72,3.74,3.74,0,0,1-1.78-3.59,3.61,3.61,0,0,1,1.83-3.53,8.87,8.87,0,0,1,4.09-.71v-3.94c0-4.63,1.53-6.95,4.61-6.95s4.6,2.32,4.6,6.95v3.94a18.41,18.41,0,0,1,4.93.42C245.26,193,246.07,194.32,246.07,196.31ZM231.69,64.41c-.08-8.3-15.44-12.07-55.2-12.07-93.29,0-117-4-142.29-30.61,10.65,16,16.48,46,115.09,44.48,102.89-1.58,40.12,26.5,21.86,58.23,32.94-29.36,60.44-48.72,60.54-59.91Zm-131.1,85.27a14.11,14.11,0,0,1-28.21,0h0a14.18,14.18,0,0,1,14.11-14.1h0A14.1,14.1,0,0,1,100.59,149.68Zm64.24,0a14.1,14.1,0,0,1-28.2,0h0a14.18,14.18,0,0,1,14.11-14.1h0A14.09,14.09,0,0,1,164.83,149.68Z"/></g></g></svg>