<?xml version="1.0"?>
<svg xmlns="http://www.w3.org/2000/svg" id="Capa_1" enable-background="new 0 0 484.007 484.007" height="44px" viewBox="0 0 484.007 484.007" width="35px" class=""><g><path d="m478.315 380.005h-15.312v-250.4c-.083-25.738-20.954-46.569-46.693-46.6h-58.207c.811-2.184.289-4.64-1.34-6.305l-27.96-28.245c-2.187-2.21-5.699-2.383-8.093-.4l-19.58 16.242c-9.49-5.715-19.751-10.041-30.468-12.846l-2.459-25.219c-.317-3.038-2.923-5.317-5.976-5.227h-40.1c-3.052-.088-5.655 2.192-5.972 5.228l-2.462 25.316c-10.744 2.725-21.024 7.028-30.506 12.767l-19.546-16.228c-2.379-1.979-5.874-1.824-8.068.359l-28.308 28.232c-1.646 1.664-2.177 4.132-1.362 6.326h-58.2c-25.741.027-46.617 20.859-46.7 46.6v250.4h-15.312c-2.994-.146-5.54 2.164-5.685 5.158-.008.154-.008.309-.003.463v31.195c-.086 25.42 20.451 46.098 45.871 46.184h.388 391.482c25.42.128 46.131-20.376 46.259-45.796.001-.129.001-.259 0-.388v-31.195c.11-2.996-2.229-5.514-5.225-5.624-.155-.006-.309-.005-.463.003zm-318.13-319.219 18.7 15.5c2.035 1.688 4.935 1.844 7.14.386 10.487-6.948 22.186-11.867 34.487-14.5 2.528-.462 4.447-2.538 4.711-5.094l2.348-24.073h29.209l2.352 24.074c.258 2.582 2.176 4.691 4.722 5.193 12.297 2.7 24.001 7.611 34.543 14.494 2.205 1.406 5.066 1.222 7.073-.454l18.671-15.492 20.273 20.475-15.517 18.71c-1.69 2.039-1.843 4.945-.377 7.15 6.96 10.467 11.897 22.147 14.553 34.433.626 2.567 2.814 4.453 5.445 4.695l24.485 2.353v29.157l-24.146 2.346c-2.601.248-4.755 2.127-5.353 4.67-2.763 12.288-7.72 23.977-14.631 34.506-1.438 2.197-1.28 5.073.389 7.1l15.485 18.69-20.575 20.529-18.7-15.5c-2.035-1.688-4.936-1.845-7.141-.386-10.487 6.948-22.185 11.867-34.487 14.5-2.568.593-4.466 2.764-4.712 5.388l-2.352 24.369h-29.209l-2.352-24.368c-.249-2.616-2.156-4.773-4.722-5.34-12.3-2.727-24.004-7.663-34.543-14.567-2.197-1.417-5.058-1.249-7.073.416l-18.7 15.5-20.571-20.532 15.5-18.689c1.691-2.04 1.844-4.947.377-7.153-6.96-10.468-11.897-22.147-14.553-34.434-.625-2.569-2.812-4.457-5.445-4.7l-24.486-2.352v-29.15l24.485-2.353c2.603-.245 4.76-2.124 5.359-4.67 2.764-12.288 7.72-23.978 14.631-34.508 1.438-2.197 1.28-5.073-.389-7.1l-15.486-18.69zm-55.6 128.42 25.56 2.465c2.776 10.731 7.123 20.993 12.9 30.453l-16.178 19.535c-1.976 2.389-1.807 5.89.391 8.077l28.313 28.251c2.191 2.188 5.687 2.349 8.07.372l19.582-16.235c9.491 5.715 19.751 10.041 30.469 12.846l2.463 25.513c.289 3.094 2.862 5.474 5.969 5.522h40.1c3.108-.046 5.683-2.427 5.972-5.522l2.463-25.462c10.745-2.752 21.023-7.08 30.5-12.842l19.544 16.192c2.384 1.973 5.878 1.81 8.067-.378l28.308-28.254c2.195-2.19 2.36-5.691.381-8.078l-16.221-19.564c5.712-9.48 10.044-19.726 12.865-30.429l25.32-2.462c3.107-.285 5.506-2.853 5.58-5.972v-40.046c-.127-2.223-1.444-4.205-3.445-5.183h29.445v204h-338v-204h29.445c-2.001.978-3.318 2.96-3.445 5.183v40.046c.073 3.119 2.475 5.688 5.582 5.972zm-71.582-59.601c.075-19.114 15.579-34.576 34.693-34.6h67.7l7.708 9.343c-4.207 6.803-7.613 14.07-10.148 21.657h-65.794c-3.332-.044-6.078 2.601-6.159 5.932v216.331c.098 3.268 2.827 5.838 6.095 5.739.021-.001.042-.001.064-.002h349.682c3.267.133 6.023-2.407 6.157-5.673.001-.021.002-.042.002-.064v-216.331c-.081-3.331-2.827-5.976-6.159-5.932h-65.741c-2.525-7.605-5.944-14.885-10.183-21.685l7.688-9.315h67.7c19.115.022 34.62 15.485 34.695 34.6v250.4h-149.482c-1.651-.071-3.255.563-4.412 1.744l-8.234 9.025c-6.543 7.116-15.753 11.186-25.42 11.231h-42.9c-9.679-.081-18.887-4.184-25.42-11.326l-8.234-8.837c-1.147-1.207-2.751-1.874-4.416-1.837h-149.482zm439 287.22c.091 18.786-15.064 34.089-33.851 34.18-.136.001-.272.001-.408 0h-391.482c-18.786.134-34.124-14.986-34.259-33.772-.001-.137-.001-.275 0-.412v-24.816h167.852l6.453 7c8.827 9.551 21.238 14.987 34.243 15h42.9c13.008-.011 25.422-5.448 34.252-15l6.452-7h167.848z" data-original="#000000" class="active-path" data-old_color="#000000" fill="#FFFFFF"/><path d="m242.032 249.469c47.639-.066 86.204-38.739 86.138-86.378s-38.739-86.204-86.378-86.138c-47.592.066-86.138 38.666-86.138 86.258.086 47.65 38.728 86.237 86.378 86.258zm0-160.516c41.012.066 74.204 33.366 74.138 74.378s-33.366 74.204-74.378 74.138c-40.965-.066-74.138-33.293-74.138-74.258.078-41.026 33.352-74.246 74.378-74.258z" data-original="#000000" class="active-path" data-old_color="#000000" fill="#FFFFFF"/><path d="m181.683 167.78 35.493 26.839c2.618 2.031 6.387 1.555 8.418-1.064s1.555-6.387-1.064-8.418c-.039-.03-.078-.06-.118-.089l-29.164-22.053 29.164-22.053c2.635-2.01 3.142-5.775 1.132-8.409-1.998-2.619-5.733-3.138-8.369-1.163l-35.493 26.835c-2.643 1.999-3.165 5.762-1.166 8.405.333.441.726.833 1.166 1.166z" data-original="#000000" class="active-path" data-old_color="#000000" fill="#FFFFFF"/><path d="m258.483 193.452c1.998 2.64 5.758 3.162 8.4 1.167l35.494-26.839c2.643-1.999 3.165-5.762 1.166-8.405-.333-.441-.726-.833-1.166-1.166l-35.494-26.839c-2.652-1.987-6.412-1.449-8.4 1.203-1.976 2.636-1.457 6.372 1.163 8.369l29.165 22.053-29.165 22.053c-2.642 2-3.162 5.762-1.163 8.404z" data-original="#000000" class="active-path" data-old_color="#000000" fill="#FFFFFF"/><path d="m235.043 209.17c3.276.496 6.335-1.758 6.831-5.034v-.001l12.116-80.052c.497-3.276-1.756-6.335-5.033-6.833-3.276-.497-6.335 1.756-6.832 5.033l-12.117 80.052c-.498 3.276 1.753 6.336 5.029 6.834.002 0 .004 0 .006.001z" data-original="#000000" class="active-path" data-old_color="#000000" fill="#FFFFFF"/></g> </svg>
